Coordinates
nRows=5
nColumns=38

# SIMM Motion File Header:
name Coordinates
datacolumns 38
datarows 5
otherdata 1
range 0.94200000000000006000 0.94600000000000006000

Units are S.I. units (second, meters, Newtons, ...)
Angles are in degrees.

endheader
time	pelvis_tilt	pelvis_list	pelvis_rotation	pelvis_tx	pelvis_ty	pelvis_tz	hip_flexion_r	hip_adduction_r	hip_rotation_r	knee_angle_r	ankle_angle_r	subtalar_angle_r	mtp_angle_r	hip_flexion_l	hip_adduction_l	hip_rotation_l	knee_angle_l	ankle_angle_l	subtalar_angle_l	mtp_angle_l	lumbar_extension	lumbar_bending	lumbar_rotation	arm_flex_r	arm_add_r	arm_rot_r	elbow_flex_r	pro_sup_r	wrist_flex_r	wrist_dev_r	arm_flex_l	arm_add_l	arm_rot_l	elbow_flex_l	pro_sup_l	wrist_flex_l	wrist_dev_l
      0.94200000000000006000	     -5.89564531758536250000	     -3.34558695686871490000	     -3.65617233919595820000	      0.89643622958800617000	      0.92223078686217019000	     -0.31274385589313775000	     10.32555870084899900000	      7.94682681351371660000	     -5.61916540667435530000	    -42.05346513607985100000	     28.55726306511084900000	      0.00000000000002325003	     -0.00000000000002858200	     47.26560155907213800000	      0.58150819929914388000	      1.74816687611442980000	   -118.13718940194502000000	     -3.32707692843114480000	      0.00000000000000538826	      0.00000000000000042448	     -7.86313432464152840000	      4.45578941026312500000	     13.26052842898540100000	    -12.91614321341541500000	    -26.30741701279711400000	     -2.95315927132903950000	     98.57322560185490100000	     89.42511254562315100000	     -0.00000000000000430989	     -0.00000000000000218631	    -24.19830448888632500000	    -22.24963409601009100000	     -1.18089218182216760000	    103.93255912786482000000	    131.05817654393186000000	      0.00000000000000095899	      0.00000000000000066423
      0.94300000000000006000	     -5.89901830968607310000	     -3.24066258811021650000	     -3.66036299090572110000	      0.89636449327374068000	      0.92269157555016090000	     -0.31264242298442640000	      9.90467120111069830000	      7.83153495408092940000	     -5.55562383754903970000	    -41.71759018027495400000	     28.39368140885998300000	      0.00000000000002371839	     -0.00000000000002905841	     47.58380296720284300000	      0.65193300445870839000	      1.71684793132981440000	   -117.84664813997807000000	     -3.26173332514137560000	      0.00000000000000545636	      0.00000000000000044233	     -7.85990810457660680000	      4.31156170204116760000	     13.38347300979535100000	    -12.70494344257829100000	    -26.30423637305705900000	     -2.95152758664566890000	     98.78582169641012500000	     89.32393163013847500000	     -0.00000000000000437559	     -0.00000000000000221963	    -24.36136454596174200000	    -22.29864621968060900000	     -1.20987864426124550000	    103.94920155499770000000	    130.96250071216599000000	      0.00000000000000095403	      0.00000000000000065543
      0.94400000000000006000	     -5.90333627502045920000	     -3.13403304823178710000	     -3.66863885690268580000	      0.89629981760983068000	      0.92315922941163275000	     -0.31254015640647376000	      9.48341701400248200000	      7.71367812480513050000	     -5.48945425289959930000	    -41.37758356852625500000	     28.21951659982682900000	      0.00000000000002420111	     -0.00000000000002955558	     47.89769410827162900000	      0.72122293772948420000	      1.68028992384239960000	   -117.54896611081513000000	     -3.19372392533284400000	      0.00000000000000552233	      0.00000000000000045453	     -7.85501101180755070000	      4.16566736668223130000	     13.50918709803816000000	    -12.49601738240729900000	    -26.30326872243988800000	     -2.95064421087113840000	     99.00177064640007500000	     89.22276330762930700000	     -0.00000000000000444139	     -0.00000000000000225438	    -24.52709457797373500000	    -22.34645742558111400000	     -1.24081031963223490000	    103.96992887075517000000	    130.86144168710322000000	      0.00000000000000094813	      0.00000000000000064753
      0.94500000000000006000	     -5.90868224415245270000	     -3.02570396554833380000	     -3.68110196745728620000	      0.89624208079118073000	      0.92363349613639956000	     -0.31243726675770717000	      9.06207173929605330000	      7.59317247381044870000	     -5.42075526065005060000	    -41.03364682976732800000	     28.03460805876855100000	      0.00000000000002467272	     -0.00000000000003002944	     48.20733230362505100000	      0.78938160306038685000	      1.63841014140265950000	   -117.24422891474912000000	     -3.12298360644970830000	      0.00000000000000558539	      0.00000000000000046197	     -7.84834986213810830000	      4.01817331599754280000	     13.63775038694359900000	    -12.28938700167160800000	    -26.30459254611228600000	     -2.95056232683028390000	     99.22094462405942700000	     89.12186373942491000000	     -0.00000000000000450799	     -0.00000000000000229046	    -24.69548591410653100000	    -22.39290370263629600000	     -1.27376791517345400000	    103.99461719532306000000	    130.75541780065132000000	      0.00000000000000094331	      0.00000000000000064151
      0.94600000000000006000	     -5.91513309197688030000	     -2.91567946673159240000	     -3.69782152680912590000	      0.89619115739615718000	      0.92411412926305836000	     -0.31233395154108073000	      8.64090575636998710000	      7.46993361779798180000	     -5.34965391587999230000	    -40.68597982023023700000	     27.83879805620415800000	      0.00000000000002514169	     -0.00000000000003051116	     48.51277617384285900000	      0.85642045827445989000	      1.59115137918450670000	   -116.93251702228469000000	     -3.04946614083990350000	      0.00000000000000564872	      0.00000000000000046533	     -7.83983612704510340000	      3.86913732205256440000	     13.76921088338980100000	    -12.08507102837854000000	    -26.30826292101167500000	     -2.95133003642443590000	     99.44321013985748400000	     89.02148473758947500000	     -0.00000000000000457310	     -0.00000000000000232782	    -24.86652560458264100000	    -22.43783922798012000000	     -1.30882893042777800000	    104.02314434563461000000	    130.64484096993806000000	      0.00000000000000093972	      0.00000000000000063876
